<svg id="imac" xmlns="http://www.w3.org/2000/svg" width="69.105" height="69.105" viewBox="0 0 69.105 69.105">
  <defs>
    <style>
      .cls-1 {
        fill: #b08760;
      }
    </style>
  </defs>
  <path id="Path_1034" data-name="Path 1034" class="cls-1" d="M62.627,0H6.479A6.486,6.486,0,0,0,0,6.479V49.67a6.486,6.486,0,0,0,6.479,6.479H23.631a17.121,17.121,0,0,1-3.047,8.638H17.276v4.319H51.829V64.786H48.523a17.12,17.12,0,0,1-3.048-8.638H62.627a6.486,6.486,0,0,0,6.479-6.479V6.479A6.486,6.486,0,0,0,62.627,0ZM6.479,4.319H62.627a2.161,2.161,0,0,1,2.16,2.16V38.872H4.319V6.479A2.161,2.161,0,0,1,6.479,4.319ZM43.486,64.786H25.62a23.292,23.292,0,0,0,2.321-8.638H41.164A23.291,23.291,0,0,0,43.486,64.786ZM62.627,51.829H6.479a2.161,2.161,0,0,1-2.16-2.16V43.191H64.786V49.67A2.161,2.161,0,0,1,62.627,51.829Z"/>
  <path id="Path_1035" data-name="Path 1035" class="cls-1" d="M251.186,347.133a2.16,2.16,0,1,1-3.054,0,2.16,2.16,0,0,1,3.054,0" transform="translate(-215.106 -301.15)"/>
</svg>
