<svg xmlns="http://www.w3.org/2000/svg" width="80.153" height="65.188" viewBox="0 0 80.153 65.188">
  <defs>
    <style>
      .cls-1 {
        fill: #b08760;
      }
    </style>
  </defs>
  <g id="Group_1079" data-name="Group 1079" transform="translate(-343.262 -316.625)">
    <path id="Path_1024" data-name="Path 1024" class="cls-1" d="M419.487,348.361h-1.548V332.3a15.688,15.688,0,0,0-15.671-15.67H364.408a15.688,15.688,0,0,0-15.67,15.67v16.066h-1.549a3.932,3.932,0,0,0-3.927,3.928V365.3a3.932,3.932,0,0,0,3.927,3.929h72.3a3.932,3.932,0,0,0,3.928-3.929V352.289A3.932,3.932,0,0,0,419.487,348.361ZM352.9,332.3a11.519,11.519,0,0,1,11.506-11.506h37.859A11.519,11.519,0,0,1,413.774,332.3v16.066h-.754l.157-.142c-.295-.325-7.457-7.957-28.892-7.957-21.343,0-29.536,7.522-29.875,7.843l.243.257H352.9Zm53.014,16.066H361.958c4.143-1.846,11.272-3.935,22.327-3.935C395.255,344.426,402.065,346.531,405.916,348.361Zm13.334,16.7H347.426v-12.54H419.25Z" transform="translate(0)"/>
    <rect id="Rectangle_49" data-name="Rectangle 49" class="cls-1" width="4.164" height="8.103" transform="translate(348.738 373.709)"/>
    <rect id="Rectangle_50" data-name="Rectangle 50" class="cls-1" width="4.164" height="8.103" transform="translate(413.774 373.709)"/>
    <path id="Path_1025" data-name="Path 1025" class="cls-1" d="M364.768,339.321a2.635,2.635,0,0,1,2.383-2.823h10.432c1.225,0,2.383,1.549,2.383,3.187h4.164c0-3.985-3-7.352-6.547-7.352H367.151a6.786,6.786,0,0,0-6.547,6.988v4.653h4.164Z" transform="translate(-2.899 -2.625)"/>
    <path id="Path_1026" data-name="Path 1026" class="cls-1" d="M402.3,336.5h9.34a2.634,2.634,0,0,1,2.383,2.823v4.653h4.164v-4.653a6.786,6.786,0,0,0-6.547-6.988H402.3c-3.549,0-6.547,3.366-6.547,7.352h4.164C399.918,338.046,401.077,336.5,402.3,336.5Z" transform="translate(-8.774 -2.625)"/>
  </g>
</svg>
