<svg xmlns="http://www.w3.org/2000/svg" width="22.001" height="22.001" viewBox="0 0 22.001 22.001"><defs><style>.a{fill:#c0b5b1;}</style></defs><path class="a" d="M8505,66a11,11,0,1,1,7.779-3.222A11.013,11.013,0,0,1,8505,66Zm-2.895-17A3.156,3.156,0,0,0,8499,52.172v5.441a3.156,3.156,0,0,0,3.105,3.172h5.574a3.156,3.156,0,0,0,3.105-3.172V52.172A3.156,3.156,0,0,0,8507.68,49Zm2.847,8.838a2.947,2.947,0,0,1-.06-5.893h.058a2.946,2.946,0,1,1,0,5.893Zm3.395-5.4a.737.737,0,0,1-.28-.055.736.736,0,0,1,.263-1.417h.018a.736.736,0,0,1,0,1.472Z" transform="translate(-8493.999 -43.999)"/></svg>