<svg xmlns="http://www.w3.org/2000/svg" width="113.1" height="16.5" viewBox="0 0 113.1 16.5">
  <path id="Union_4" data-name="Union 4" d="M85.064,8.265A8.317,8.317,0,0,1,93.444.03a8.4,8.4,0,0,1,5.145,1.726V4.572A6.438,6.438,0,0,0,93.444,2,6.284,6.284,0,0,0,87.1,8.235,6.376,6.376,0,0,0,98.589,11.9v2.876A8.4,8.4,0,0,1,93.444,16.5,8.317,8.317,0,0,1,85.064,8.265ZM15.1,8.235a8.381,8.381,0,0,1,16.76,0,8.381,8.381,0,0,1-16.76,0Zm2.034,0a6.348,6.348,0,0,0,12.693,0,6.348,6.348,0,0,0-12.693,0ZM0,8.235A8.29,8.29,0,0,1,8.349,0a8.428,8.428,0,0,1,5.145,1.756V4.572A6.438,6.438,0,0,0,8.349,2,6.283,6.283,0,0,0,2,8.235a6.283,6.283,0,0,0,6.347,6.237A6.311,6.311,0,0,0,13.494,11.9l.031,2.846A8.4,8.4,0,0,1,8.38,16.469,8.317,8.317,0,0,1,0,8.235Zm52.221-5.54V0l13.31,11.958V.3h2V16.439Zm-18.547,0V0l13.31,11.958V.3h2V16.439Zm72.37,13.472V2.271h-5.022V.3H113.1V2.271h-5.022v13.9Zm-53.823,0V7.024l2,1.816v7.326Zm-18.547,0V7.024l2,1.816v7.326Zm37.094-.03V14.169H82.876v1.968Zm0-6.933V7.236H82.876V9.2Zm0-6.933V.3H82.876V2.271Z" fill="#1a1818" opacity="0.8"/>
</svg>
