<svg xmlns="http://www.w3.org/2000/svg" width="66.4" height="65.73" viewBox="0 0 66.4 65.73">
  <defs>
    <style>
      .cls-1 {
        fill: #b08760;
      }
    </style>
  </defs>
  <g id="Group_1078" data-name="Group 1078" transform="translate(-575.919 -525.87)">
    <path id="Path_1022" data-name="Path 1022" class="cls-1" d="M601.914,565.585h10.225c17.711,0,17.659-25.56,0-25.56-5.681,0-11.361.051-17.04.051v36.146h6.815Zm0-19.054h10.225c8.675,0,8.726,12.806,0,12.806H601.914Z"/>
    <path id="Path_1023" data-name="Path 1023" class="cls-1" d="M639.819,525.87h-61.4a2.5,2.5,0,0,0-2.5,2.5V589.1a2.5,2.5,0,0,0,2.5,2.5h61.4a2.5,2.5,0,0,0,2.5-2.5V528.37A2.5,2.5,0,0,0,639.819,525.87Zm-2.5,60.73h-56.4V530.87h56.4Z"/>
  </g>
</svg>
