<svg id="Group_1080" data-name="Group 1080" xmlns="http://www.w3.org/2000/svg" width="77.148" height="50.957" viewBox="0 0 77.148 50.957">
  <defs>
    <style>
      .cls-1 {
        fill: #b08760;
      }
    </style>
  </defs>
  <g id="Group_1036" data-name="Group 1036">
    <path id="Path_1039" data-name="Path 1039" class="cls-1" d="M76.3,12.606a2.643,2.643,0,0,0-3.257-1.839L2.392,30.418A2.644,2.644,0,0,0,3.1,35.609a2.762,2.762,0,0,0,.712-.1l27.226-7.573L29.1,38.625H45.9L43.337,24.517,74.469,15.86A2.641,2.641,0,0,0,76.3,12.606Z" transform="translate(0.748 4.465)"/>
    <path id="Path_1040" data-name="Path 1040" class="cls-1" d="M3.4,24.121a2.018,2.018,0,0,0,.976.259,2.144,2.144,0,0,0,.532-.071l7.633-2.125a1.985,1.985,0,1,0-1.066-3.823L5.76,19.953,3.9,13.254A1.985,1.985,0,1,0,.074,14.32l2.395,8.61A1.985,1.985,0,0,0,3.4,24.121Z" transform="translate(0 6.33)"/>
    <path id="Path_1041" data-name="Path 1041" class="cls-1" d="M24.633,19.652a2.072,2.072,0,0,0,.532-.071L32.8,17.458a1.985,1.985,0,0,0,1.193-.937,1.951,1.951,0,0,0,.183-1.508L31.779,6.4a1.985,1.985,0,0,0-3.823,1.066l1.865,6.7-5.72,1.59a1.984,1.984,0,0,0,.532,3.895Z" transform="translate(37.278 -4.949)"/>
    <path id="Path_1042" data-name="Path 1042" class="cls-1" d="M53.518,22.208H7.381a2.646,2.646,0,0,0,0,5.292H53.52a2.646,2.646,0,1,0,0-5.292Z" transform="translate(7.792 23.457)"/>
  </g>
</svg>
