<svg xmlns="http://www.w3.org/2000/svg" width="69" height="69" viewBox="0 0 69 69">
  <defs>
    <style>
      .cls-1 {
        fill: #b08760;
      }
    </style>
  </defs>
  <path id="forest_1_" data-name="forest (1)" class="cls-1" d="M69,32.479C69,20.431,61.687,0,50.672,0,42.936,0,37.628,10.031,35.135,17.457a10.029,10.029,0,0,0-2.826-.981,10.109,10.109,0,0,0-19.874,0,10.2,10.2,0,0,0-8.391,9.941,10.084,10.084,0,0,0,.668,3.619,10.084,10.084,0,0,0,5.4,18.618A10.443,10.443,0,0,0,16.3,46.585a10.1,10.1,0,0,0,4.053,1.856v8.43H18.284a10.278,10.278,0,0,0-8.177-4.043A10.119,10.119,0,0,0,0,62.936v4.043A2.022,2.022,0,0,0,2.021,69H66.979A2.022,2.022,0,0,0,69,66.979,10.119,10.119,0,0,0,58.893,56.871h-6.2V48.616C63.272,48.227,69,43.754,69,32.479ZM50.672,4.043c7.171,0,14.285,16.633,14.285,28.436,0,8.81-3.759,11.751-12.264,12.092V35.759l7.091-3.488A2.021,2.021,0,0,0,58,28.643l-5.307,2.61V18.328a2.021,2.021,0,0,0-4.043,0v4.309l-2.922-1.948a2.021,2.021,0,1,0-2.243,3.364L48.65,27.5V44.568a22.5,22.5,0,0,1-5.5-.8A10.059,10.059,0,0,0,39.9,30.033a10.106,10.106,0,0,0-1.416-9.758c1.686-5.616,6.336-16.232,12.191-16.232Zm-9.9,60.914H32.275a10.138,10.138,0,0,0-7.883-7.883V48.441a10.1,10.1,0,0,0,4.043-1.849,10.021,10.021,0,0,0,11.674.353,23.367,23.367,0,0,0,8.541,1.67v8.459A10.138,10.138,0,0,0,40.768,64.957ZM17.829,42.51a2.021,2.021,0,0,0-3.044,0,6.283,6.283,0,0,1-4.677,2.1,6.045,6.045,0,0,1-1.99-11.759,2.021,2.021,0,0,0,1.006-3.041,6.032,6.032,0,0,1-1.038-3.393,6.215,6.215,0,0,1,6.2-6.064,2.022,2.022,0,0,0,2.021-2.021,6.064,6.064,0,1,1,12.129,0,2.022,2.022,0,0,0,2.021,2.021,6.065,6.065,0,0,1,5.026,9.458,2.021,2.021,0,0,0,1.006,3.041A6.045,6.045,0,0,1,34.5,44.607a5.972,5.972,0,0,1-4.543-2.1,2.021,2.021,0,0,0-3.044,0,5.967,5.967,0,0,1-9.085,0ZM10.107,56.871a6.276,6.276,0,0,1,5.352,3.038,2.021,2.021,0,0,0,1.747,1h5.164a6.074,6.074,0,0,1,5.717,4.043H4.043V62.936A6.071,6.071,0,0,1,10.107,56.871Zm54.5,8.086H44.955a6.074,6.074,0,0,1,5.717-4.043h8.221a6.074,6.074,0,0,1,5.717,4.043Z"/>
</svg>
