<svg xmlns="http://www.w3.org/2000/svg" width="100.716" height="72.105" viewBox="0 0 100.716 72.105">
  <defs>
    <style>
      .cls-1 {
        fill: #b08760;
      }
    </style>
  </defs>
  <g id="Group_1077" data-name="Group 1077" transform="translate(-122.784 -539.638)">
    <path id="Path_1017" data-name="Path 1017" class="cls-1" d="M174.564,547.245a27.63,27.63,0,1,0,27.629,27.63A27.661,27.661,0,0,0,174.564,547.245Zm0,50.261a22.63,22.63,0,1,1,22.629-22.631A22.655,22.655,0,0,1,174.564,597.506Z"/>
    <path id="Path_1018" data-name="Path 1018" class="cls-1" d="M174.564,559.9a14.974,14.974,0,1,0,14.972,14.973A14.99,14.99,0,0,0,174.564,559.9Zm0,24.947a9.974,9.974,0,1,1,9.972-9.974A9.985,9.985,0,0,1,174.564,584.849Z"/>
    <path id="Path_1019" data-name="Path 1019" class="cls-1" d="M139.15,551.145a5.683,5.683,0,0,1-11.366,0V540.508h-5v10.637a10.683,10.683,0,0,0,21.366,0V540.508h-5Z"/>
    <rect id="Rectangle_46" data-name="Rectangle 46" class="cls-1" width="5" height="13.501" transform="translate(130.968 540.508)"/>
    <path id="Path_1020" data-name="Path 1020" class="cls-1" d="M134.485,574.087l.377,31.191a1.4,1.4,0,0,1-2.406,1.032,1.466,1.466,0,0,1-.381-1.124l.374-31.1-5-.061-.371,31.008a6.4,6.4,0,1,0,12.781.092l-.374-31.1Z"/>
    <path id="Path_1021" data-name="Path 1021" class="cls-1" d="M213.576,569.255l1.756,4.681c.334-.125,8.168-3.2,8.168-15.433,0-12.044-12.314-18.339-12.838-18.6a2.5,2.5,0,0,0-3.618,2.237v35.121l-1.435,27.769a6.4,6.4,0,1,0,12.782.069V578.785h-5V605.15c0,.041,0,.081,0,.122a1.4,1.4,0,1,1-2.79.007l1.437-27.827q0-.065,0-.129V546.8c2.889,2.342,6.456,6.324,6.456,11.7C218.5,567.11,213.74,569.185,213.576,569.255Z"/>
    <rect id="Rectangle_47" data-name="Rectangle 47" class="cls-1" width="5" height="5.728" transform="translate(130.968 564.237)"/>
  </g>
</svg>
