<svg xmlns="http://www.w3.org/2000/svg" width="79.148" height="69.105" viewBox="0 0 79.148 69.105">
  <defs>
    <style>
      .cls-1 {
        fill: #b08760;
      }
    </style>
  </defs>
  <g id="shop" transform="translate(0 -31.05)">
    <g id="Group_1012" data-name="Group 1012" transform="translate(0 31.05)">
      <path id="Path_1028" data-name="Path 1028" class="cls-1" d="M264.292,263.75H253.537a5.342,5.342,0,0,0-5.337,5.337v8.248a5.342,5.342,0,0,0,5.337,5.337h10.755a5.342,5.342,0,0,0,5.337-5.337v-8.248A5.342,5.342,0,0,0,264.292,263.75Zm1.456,13.585a1.46,1.46,0,0,1-1.456,1.456H253.537a1.46,1.46,0,0,1-1.456-1.456v-8.248a1.46,1.46,0,0,1,1.456-1.456h10.755a1.46,1.46,0,0,1,1.456,1.456Z" transform="translate(-208.06 -226.117)"/>
      <path id="Path_1029" data-name="Path 1029" class="cls-1" d="M79.148,53.692a1.8,1.8,0,0,0-.259-.954l-11.774-20.7a1.951,1.951,0,0,0-1.682-.987H13.7a1.918,1.918,0,0,0-1.682.987L.259,52.737A1.962,1.962,0,0,0,0,53.692,11.353,11.353,0,0,0,6.792,64.074v34.14a1.946,1.946,0,0,0,1.941,1.941H70.4a1.946,1.946,0,0,0,1.941-1.941v-33.9a.854.854,0,0,0-.016-.21A11.384,11.384,0,0,0,79.148,53.692ZM14.83,34.948H64.3l9.2,16.189H5.644ZM56.329,55a7.459,7.459,0,0,1-14.685,0ZM37.52,55a7.469,7.469,0,0,1-14.7,0ZM4.011,55h14.7a7.469,7.469,0,0,1-14.7,0ZM32.6,96.274H21.445V75.33a2.764,2.764,0,0,1,2.766-2.766h5.644A2.764,2.764,0,0,1,32.62,75.33V96.274Zm35.855,0H36.485V75.33a6.657,6.657,0,0,0-6.647-6.647H24.194a6.657,6.657,0,0,0-6.647,6.647V96.29H10.674V65.029c.226.016.453.016.679.016a11.338,11.338,0,0,0,9.412-5.013,11.342,11.342,0,0,0,18.825,0,11.312,11.312,0,0,0,18.792,0A11.339,11.339,0,0,0,67.8,65.045c.226,0,.437-.016.663-.016V96.274ZM67.8,61.163a7.455,7.455,0,0,1-7.342-6.146h14.7A7.5,7.5,0,0,1,67.8,61.163Z" transform="translate(0 -31.05)"/>
    </g>
  </g>
</svg>
